# Blender v2.80 (sub 35) OBJ File: 'part_boolean_targets.blend'
# www.blender.org
o IntersectionTool1_Part.001
v -7.914495 -82.739830 -1.558420
v -7.914495 -82.786186 -0.222643
v -7.914495 -82.439171 -4.213748
v -7.914495 -82.624046 -2.890013
v -7.914495 -82.185699 -5.526062
v -7.914495 -81.864288 -6.823459
v -7.917395 -81.470337 -8.129700
v -7.908789 -81.473114 8.340570
v -7.906683 -81.456497 8.686170
v -7.917395 -81.607582 7.706050
v -7.908789 -81.522919 8.005251
v -7.904577 -81.329491 -9.564629
v -7.904608 -81.424484 -10.020328
v -7.904577 -81.583366 -10.457863
v -7.904608 -81.802910 -10.868313
v -7.906683 -81.302292 -9.107049
v -7.904608 -82.078636 -11.243376
v -7.904608 -82.404900 -11.575362
v -7.904577 -82.775124 -11.857520
v -7.904608 -83.181717 -12.084125
v -7.904577 -83.616409 -12.250575
v -7.904608 -84.070381 -12.353473
v -7.912359 -84.508926 -12.382520
v -7.914495 -82.762993 1.113784
v -7.914495 -82.508392 3.773905
v -7.914495 -82.670303 2.447142
v -7.914495 -81.978844 6.393179
v -7.914495 -82.277702 5.090441
v -7.920294 -163.110229 -0.918769
v -7.912359 -163.194901 7.996319
v -7.912359 -163.040390 -9.834041
v -7.920294 -122.356644 11.571951
v -7.912359 -84.719429 11.905560
v -7.912359 -159.994049 11.253175
v -7.920294 -122.146324 -12.701298
v -7.912359 -159.783539 -13.034905
v -7.908789 -81.380493 -8.427386
v -7.908789 -81.324913 -8.761780
v -7.904577 -160.222504 -13.013467
v -7.904608 -160.678192 -12.918477
v -7.904608 -161.115738 -12.759591
v -7.904577 -161.526199 -12.540057
v -7.904608 -161.901245 -12.264332
v -7.904608 -162.233200 -11.938067
v -7.904577 -162.515396 -11.567839
v -7.904608 -162.741989 -11.161253
v -7.904577 -162.908447 -10.726554
v -7.904608 -163.011337 -10.272555
v -7.904608 -84.280472 11.884121
v -7.904577 -83.824760 11.789131
v -7.904608 -83.387238 11.630244
v -7.904577 -82.976776 11.410710
v -7.904608 -82.601753 11.134985
v -7.904577 -82.269730 10.808721
v -7.904608 -81.987579 10.438492
v -7.904577 -81.760933 10.031906
v -7.904608 -81.594521 9.597207
v -7.904577 -81.491615 9.143239
v -7.904608 -163.173462 8.435282
v -7.904577 -163.078476 8.890981
v -7.904608 -162.919586 9.328516
v -7.904577 -162.700058 9.738967
v -7.904608 -162.424332 10.114029
v -7.904608 -162.098068 10.446015
v -7.904577 -161.727844 10.728173
v -7.904608 -161.321259 10.954778
v -7.904577 -160.886551 11.121230
v -7.904608 -160.432587 11.224128
v 8.262813 -82.739830 -1.558420
v 8.262813 -82.786186 -0.222643
v 8.262813 -82.439171 -4.213748
v 8.262813 -82.624046 -2.890013
v 8.262813 -82.185699 -5.526062
v 8.262813 -81.864288 -6.823459
v 8.265712 -81.470337 -8.129700
v 8.257106 -81.473114 8.340570
v 8.255000 -81.456497 8.686170
v 8.265712 -81.607582 7.706050
v 8.257106 -81.522919 8.005251
v 8.252894 -81.329491 -9.564629
v 8.252925 -81.424484 -10.020328
v 8.252894 -81.583366 -10.457863
v 8.252925 -81.802910 -10.868313
v 8.255000 -81.302292 -9.107049
v 8.252925 -82.078636 -11.243376
v 8.252925 -82.404900 -11.575362
v 8.252894 -82.775124 -11.857520
v 8.252925 -83.181717 -12.084125
v 8.252894 -83.616409 -12.250575
v 8.252925 -84.070381 -12.353473
v 8.260676 -84.508926 -12.382520
v 8.262813 -82.762993 1.113784
v 8.262813 -82.508392 3.773905
v 8.262813 -82.670303 2.447142
v 8.262813 -81.978844 6.393179
v 8.262813 -82.277702 5.090441
v 8.268611 -163.110229 -0.918769
v 8.260676 -163.194901 7.996319
v 8.260676 -163.040390 -9.834041
v 8.268611 -122.356644 11.571951
v 8.260676 -84.719429 11.905560
v 8.260676 -159.994049 11.253175
v 8.268611 -122.146324 -12.701298
v 8.260676 -159.783539 -13.034905
v 8.257106 -81.380493 -8.427386
v 8.257106 -81.324913 -8.761780
v 8.252894 -160.222504 -13.013467
v 8.252925 -160.678192 -12.918477
v 8.252925 -161.115738 -12.759591
v 8.252894 -161.526199 -12.540057
v 8.252925 -161.901245 -12.264332
v 8.252925 -162.233200 -11.938067
v 8.252894 -162.515396 -11.567839
v 8.252925 -162.741989 -11.161253
v 8.252894 -162.908447 -10.726554
v 8.252925 -163.011337 -10.272555
v 8.252925 -84.280472 11.884121
v 8.252894 -83.824760 11.789131
v 8.252925 -83.387238 11.630244
v 8.252894 -82.976776 11.410710
v 8.252925 -82.601753 11.134985
v 8.252894 -82.269730 10.808721
v 8.252925 -81.987579 10.438492
v 8.252894 -81.760933 10.031906
v 8.252925 -81.594521 9.597207
v 8.252894 -81.491615 9.143239
v 8.252925 -163.173462 8.435282
v 8.252894 -163.078476 8.890981
v 8.252925 -162.919586 9.328516
v 8.252894 -162.700058 9.738967
v 8.252925 -162.424332 10.114029
v 8.252925 -162.098068 10.446015
v 8.252894 -161.727844 10.728173
v 8.252925 -161.321259 10.954778
v 8.252894 -160.886551 11.121230
v 8.252925 -160.432587 11.224128
vn 0.0000 -0.7953 -0.6062
vn 0.0000 0.9622 -0.2723
vn 0.0000 0.9976 -0.0694
vn 0.0000 -0.5923 -0.8057
vn 0.0000 0.9747 -0.2236
vn 0.0000 0.9850 -0.1726
vn 0.0000 -0.8735 -0.4868
vn 0.0000 0.9891 -0.1469
vn 0.0000 0.7954 0.6061
vn 0.0000 0.3576 -0.9339
vn 0.0000 -0.9978 -0.0661
vn 0.0000 0.9707 0.2405
vn 0.0000 -0.7010 -0.7132
vn 0.0000 0.9988 -0.0481
vn 0.0000 0.8734 0.4869
vn 0.0000 0.4716 0.8818
vn 0.0000 -0.2210 0.9753
vn 0.0000 0.9926 -0.1211
vn 0.0000 0.7009 0.7133
vn 0.0000 0.9623 -0.2721
vn 0.0000 0.9339 0.3575
vn 0.0000 0.0661 -0.9978
vn 0.0000 -0.0488 -0.9988
vn 0.0000 -0.0661 0.9978
vn 0.0000 0.2211 -0.9753
vn 0.0000 -0.9753 -0.2211
vn 0.0000 -0.9790 0.2040
vn 0.0000 0.5923 0.8057
vn 0.0000 0.9573 0.2889
vn 0.0000 0.9904 0.1383
vn 0.0000 -0.0089 1.0000
vn 0.0000 0.9574 0.2888
vn 0.0000 -0.8818 0.4716
vn 0.0000 -0.0085 1.0000
vn 0.0000 -0.9338 -0.3577
vn 0.0000 0.9819 0.1896
vn 0.0000 0.3413 0.9399
vn 0.0000 0.9979 0.0654
vn 0.0000 -0.8057 0.5923
vn 0.0000 0.9971 0.0766
vn 0.0000 0.9865 0.1640
vn 0.0000 0.8818 -0.4717
vn 0.0000 -0.4868 0.8735
vn 0.0000 0.0089 -1.0000
vn 0.0000 0.9962 0.0866
vn 0.0000 0.8057 -0.5923
vn 0.0000 0.9998 -0.0174
vn 0.0000 0.7132 -0.7009
vn 0.0000 -0.3576 0.9339
vn 0.0000 -1.0000 -0.0095
vn 0.0000 0.9994 0.0347
vn 0.0000 -0.4716 -0.8818
vn 0.0000 -0.9399 0.3414
vn 0.0000 -0.3413 -0.9399
vn 0.0000 0.9982 -0.0594
vn 0.0000 -1.0000 -0.0078
vn 0.0000 0.9790 -0.2041
vn 0.0000 -0.2041 -0.9790
vn 0.0000 0.9400 -0.3413
vn 0.0000 0.0488 0.9988
vn 0.0000 -0.6062 0.7953
vn 0.0000 0.2041 0.9790
vn 0.0000 0.4868 -0.8735
vn 0.0000 0.0085 -1.0000
vn 0.0000 -0.9988 0.0488
vn 0.0000 0.6062 -0.7953
vn 0.0000 -0.7132 0.7009
vn 0.0000 0.9753 0.2211
vn -1.0000 -0.0005 -0.0001
vn 1.0000 0.0001 0.0000
vn 0.0000 0.9976 -0.0693
vn 0.0000 0.7953 0.6062
vn 0.0000 0.9988 -0.0480
vn 0.0000 0.8735 0.4869
vn 0.0000 -0.2211 0.9753
vn 0.0000 0.2210 -0.9753
vn 0.0000 -0.9753 -0.2210
vn 0.0000 -0.9789 0.2041
vn 0.0000 0.5924 0.8057
vn 0.0000 0.9573 0.2890
vn 0.0000 0.9574 0.2887
vn 0.0000 -0.9339 -0.3575
vn 0.0000 -0.4869 0.8735
vn 0.0000 -0.9400 0.3413
vn 0.0000 0.9982 -0.0593
vn 0.0000 0.9399 -0.3414
vn 0.0000 -0.6061 0.7954
vn -0.9937 0.0229 0.1095
vn -0.9992 0.0136 0.0376
vn -0.9998 0.0094 0.0175
vn -0.9999 0.0073 0.0101
vn -1.0000 0.0058 0.0058
vn -1.0000 0.0074 0.0057
vn -0.9999 0.0114 0.0063
vn -0.9998 0.0172 0.0066
vn -0.9995 0.0312 0.0070
vn -0.9996 0.0283 0.0066
vn -0.9990 0.0456 0.0039
vn -0.9774 0.2091 -0.0311
vn -1.0000 -0.0033 -0.0013
vn -0.9937 -0.0248 0.1091
vn -1.0000 -0.0002 0.0007
vn -1.0000 0.0002 0.0002
vn -1.0000 0.0056 0.0053
vn -1.0000 -0.0009 0.0009
vn -1.0000 -0.0005 0.0001
vn -0.9992 -0.0142 0.0374
vn -0.9999 -0.0075 0.0099
vn -0.9998 -0.0097 0.0173
vn -0.9999 -0.0101 0.0073
vn -1.0000 -0.0059 0.0058
vn -0.9992 -0.0376 0.0136
vn -0.9998 -0.0175 0.0094
vn -0.9937 -0.1095 0.0229
vn -0.9937 -0.1091 -0.0248
vn -1.0000 -0.0009 -0.0009
vn -1.0000 -0.0006 0.0001
vn -1.0000 -0.0007 0.0001
vn -1.0000 -0.0058 -0.0059
vn -0.9992 -0.0373 -0.0142
vn -0.9999 -0.0099 -0.0075
vn -0.9998 -0.0173 -0.0097
vn -0.9999 -0.0073 -0.0101
vn -0.9992 -0.0135 -0.0372
vn -0.9998 -0.0094 -0.0175
vn -0.9936 -0.0230 -0.1108
vn -0.9937 0.0248 -0.1091
vn -1.0000 0.0002 -0.0002
vn -1.0000 0.0001 0.0000
vn -1.0000 -0.0002 -0.0007
vn -1.0000 -0.0000 0.0000
vn -1.0000 -0.0008 0.0001
vn -0.9998 0.0097 -0.0173
vn -0.9992 0.0142 -0.0374
vn -1.0000 0.0059 -0.0058
vn -0.9999 0.0075 -0.0100
vn -0.9999 0.0115 -0.0061
vn -1.0000 0.0076 -0.0056
vn -0.9995 0.0313 -0.0065
vn -0.9998 0.0173 -0.0063
vn -0.9990 0.0456 -0.0031
vn -0.9996 0.0284 -0.0061
vn -0.9774 0.2084 0.0346
vn -1.0000 -0.0033 0.0012
vn -1.0000 0.0056 -0.0052
vn -1.0000 -0.0008 -0.0001
vn -1.0000 -0.0007 -0.0001
vn -1.0000 -0.0006 -0.0001
vn 0.9937 0.0229 0.1095
vn 1.0000 -0.0002 0.0007
vn 0.9937 -0.0248 0.1091
vn 1.0000 -0.0009 0.0009
vn 0.9992 0.0136 0.0376
vn 1.0000 0.0002 0.0002
vn 1.0000 -0.0005 0.0001
vn 0.9998 0.0094 0.0175
vn 1.0000 0.0058 0.0058
vn 0.9999 0.0073 0.0101
vn 0.9999 0.0114 0.0063
vn 1.0000 0.0074 0.0057
vn 0.9995 0.0312 0.0070
vn 0.9998 0.0172 0.0066
vn 0.9990 0.0456 0.0039
vn 0.9996 0.0283 0.0066
vn 0.9774 0.2091 -0.0311
vn 1.0000 -0.0033 -0.0013
vn 1.0000 0.0056 0.0053
vn 0.9992 -0.0142 0.0374
vn 0.9998 -0.0097 0.0173
vn 0.9999 -0.0075 0.0099
vn 1.0000 -0.0059 0.0058
vn 0.9999 -0.0101 0.0073
vn 0.9998 -0.0175 0.0094
vn 0.9992 -0.0376 0.0136
vn 0.9937 -0.1095 0.0229
vn 1.0000 -0.0009 -0.0009
vn 0.9937 -0.1091 -0.0248
vn 1.0000 -0.0058 -0.0059
vn 0.9992 -0.0374 -0.0142
vn 0.9998 -0.0173 -0.0097
vn 0.9999 -0.0099 -0.0075
vn 0.9999 -0.0073 -0.0101
vn 0.9998 -0.0094 -0.0175
vn 0.9992 -0.0135 -0.0372
vn 0.9936 -0.0230 -0.1108
vn 1.0000 0.0002 -0.0002
vn 0.9937 0.0248 -0.1091
vn 1.0000 -0.0005 -0.0001
vn 1.0000 -0.0002 -0.0007
vn 1.0000 0.0000 0.0000
vn 1.0000 -0.0006 -0.0001
vn 0.9992 0.0142 -0.0374
vn 0.9998 0.0097 -0.0173
vn 0.9999 0.0075 -0.0100
vn 1.0000 0.0059 -0.0058
vn 1.0000 0.0076 -0.0056
vn 1.0000 0.0056 -0.0052
vn 0.9999 0.0115 -0.0061
vn 0.9998 0.0173 -0.0063
vn 0.9995 0.0313 -0.0065
vn 0.9990 0.0456 -0.0031
vn 0.9774 0.2084 0.0346
vn 0.9996 0.0284 -0.0061
vn 1.0000 -0.0007 -0.0001
vn 1.0000 -0.0006 0.0001
vn 1.0000 -0.0007 0.0001
vn 1.0000 -0.0033 0.0012
vn 1.0000 -0.0008 0.0001
vn 1.0000 -0.0008 -0.0001
s off
f 112//1 45//1 44//1
f 11//2 78//2 10//2
f 26//3 92//3 24//3
f 110//4 43//4 42//4
f 95//5 28//5 27//5
f 28//6 93//6 25//6
f 113//7 46//7 45//7
f 76//8 11//8 8//8
f 54//9 123//9 55//9
f 88//10 21//10 20//10
f 48//11 99//11 31//11
f 73//12 6//12 5//12
f 111//13 44//13 43//13
f 9//14 76//14 8//14
f 123//15 56//15 55//15
f 119//16 52//16 51//16
f 67//17 136//17 68//17
f 93//18 26//18 25//18
f 121//19 54//19 53//19
f 78//20 27//20 10//20
f 124//21 57//21 56//21
f 90//22 23//22 22//22
f 104//23 39//23 36//23
f 68//24 102//24 34//24
f 21//25 90//25 22//25
f 115//26 48//26 47//26
f 127//27 60//27 59//27
f 120//28 53//28 52//28
f 75//29 37//29 7//29
f 4//30 71//30 3//30
f 100//31 33//31 32//31
f 74//32 7//32 6//32
f 129//33 62//33 61//33
f 34//34 100//34 32//34
f 114//35 47//35 46//35
f 71//36 5//36 3//36
f 50//37 119//37 51//37
f 38//38 84//38 16//38
f 130//39 63//39 62//39
f 9//40 126//40 77//40
f 105//41 38//41 37//41
f 82//42 15//42 14//42
f 65//43 134//43 66//43
f 103//44 36//44 35//44
f 69//45 4//45 1//45
f 83//46 17//46 15//46
f 24//47 70//47 2//47
f 85//48 18//48 17//48
f 134//49 67//49 66//49
f 97//50 30//50 29//50
f 2//51 69//51 1//51
f 109//52 42//52 41//52
f 128//53 61//53 60//53
f 108//54 41//54 40//54
f 16//55 80//55 12//55
f 31//56 97//56 29//56
f 80//57 13//57 12//57
f 39//58 108//58 40//58
f 81//59 14//59 13//59
f 101//60 49//60 33//60
f 132//61 65//61 64//61
f 117//62 50//62 49//62
f 87//63 20//63 19//63
f 91//64 35//64 23//64
f 98//65 59//65 30//65
f 86//66 19//66 18//66
f 131//67 64//67 63//67
f 125//68 58//68 57//68
f 5//69 6//69 23//69
f 70//70 103//70 69//70
f 112//1 113//1 45//1
f 11//2 79//2 78//2
f 26//71 94//71 92//71
f 110//4 111//4 43//4
f 95//5 96//5 28//5
f 28//6 96//6 93//6
f 113//7 114//7 46//7
f 76//8 79//8 11//8
f 54//72 122//72 123//72
f 88//10 89//10 21//10
f 48//11 116//11 99//11
f 73//12 74//12 6//12
f 111//13 112//13 44//13
f 9//73 77//73 76//73
f 123//74 124//74 56//74
f 119//16 120//16 52//16
f 67//75 135//75 136//75
f 93//18 94//18 26//18
f 121//19 122//19 54//19
f 78//20 95//20 27//20
f 124//21 125//21 57//21
f 90//22 91//22 23//22
f 104//23 107//23 39//23
f 68//24 136//24 102//24
f 21//76 89//76 90//76
f 115//77 116//77 48//77
f 127//78 128//78 60//78
f 120//79 121//79 53//79
f 75//80 105//80 37//80
f 4//30 72//30 71//30
f 100//31 101//31 33//31
f 74//81 75//81 7//81
f 129//33 130//33 62//33
f 34//34 102//34 100//34
f 114//82 115//82 47//82
f 71//36 73//36 5//36
f 50//37 118//37 119//37
f 38//38 106//38 84//38
f 130//39 131//39 63//39
f 9//40 58//40 126//40
f 105//41 106//41 38//41
f 82//42 83//42 15//42
f 65//83 133//83 134//83
f 103//44 104//44 36//44
f 69//45 72//45 4//45
f 83//46 85//46 17//46
f 24//47 92//47 70//47
f 85//48 86//48 18//48
f 134//49 135//49 67//49
f 97//50 98//50 30//50
f 2//51 70//51 69//51
f 109//52 110//52 42//52
f 128//84 129//84 61//84
f 108//54 109//54 41//54
f 16//85 84//85 80//85
f 31//56 99//56 97//56
f 80//57 81//57 13//57
f 39//58 107//58 108//58
f 81//86 82//86 14//86
f 101//60 117//60 49//60
f 132//87 133//87 65//87
f 117//62 118//62 50//62
f 87//63 88//63 20//63
f 91//64 103//64 35//64
f 98//65 127//65 59//65
f 86//66 87//66 19//66
f 131//67 132//67 64//67
f 125//68 126//68 58//68
f 33//88 49//88 50//88
f 50//89 51//89 33//89
f 51//90 52//90 33//90
f 52//91 53//91 33//91
f 53//92 54//92 33//92
f 54//93 55//93 10//93
f 55//94 56//94 10//94
f 56//95 57//95 10//95
f 57//96 58//96 9//96
f 10//97 57//97 9//97
f 9//98 8//98 10//98
f 8//99 11//99 10//99
f 10//100 27//100 33//100
f 68//101 34//101 67//101
f 34//102 32//102 29//102
f 32//103 33//103 24//103
f 54//104 10//104 33//104
f 34//105 29//105 30//105
f 33//106 27//106 28//106
f 66//107 67//107 34//107
f 64//108 65//108 34//108
f 65//109 66//109 34//109
f 62//110 63//110 30//110
f 63//111 64//111 34//111
f 30//111 63//111 34//111
f 60//112 61//112 30//112
f 61//113 62//113 30//113
f 30//114 59//114 60//114
f 48//115 31//115 47//115
f 31//116 29//116 36//116
f 33//117 28//117 25//117
f 33//118 25//118 26//118
f 31//119 36//119 44//119
f 46//120 47//120 31//120
f 44//121 45//121 31//121
f 45//122 46//122 31//122
f 42//123 43//123 36//123
f 43//119 44//119 36//119
f 40//124 41//124 36//124
f 41//125 42//125 36//125
f 36//126 39//126 40//126
f 22//127 23//127 21//127
f 23//128 35//128 1//128
f 1//129 35//129 2//129
f 35//130 36//130 29//130
f 35//131 29//131 32//131
f 33//132 26//132 24//132
f 19//133 20//133 23//133
f 20//134 21//134 23//134
f 17//135 18//135 23//135
f 18//136 19//136 23//136
f 14//137 15//137 7//137
f 15//138 17//138 7//138
f 12//139 13//139 16//139
f 13//140 14//140 7//140
f 38//141 16//141 7//141
f 7//142 16//142 13//142
f 7//143 37//143 38//143
f 6//144 7//144 23//144
f 7//145 17//145 23//145
f 23//146 1//146 4//146
f 32//129 24//129 2//129
f 32//129 2//129 35//129
f 23//147 4//147 3//147
f 23//148 3//148 5//148
f 118//149 117//149 101//149
f 100//150 102//150 97//150
f 102//151 136//151 135//151
f 97//152 102//152 98//152
f 118//153 101//153 119//153
f 101//154 100//154 92//154
f 95//155 101//155 96//155
f 120//156 119//156 101//156
f 122//157 121//157 101//157
f 121//158 120//158 101//158
f 124//159 123//159 78//159
f 123//160 122//160 78//160
f 126//161 125//161 77//161
f 125//162 124//162 78//162
f 76//163 77//163 78//163
f 78//164 77//164 125//164
f 78//165 79//165 76//165
f 95//166 78//166 101//166
f 78//167 122//167 101//167
f 135//168 134//168 102//168
f 134//169 133//169 102//169
f 133//170 132//170 102//170
f 132//171 131//171 102//171
f 131//172 130//172 98//172
f 130//173 129//173 98//173
f 129//174 128//174 98//174
f 128//175 127//175 98//175
f 97//176 99//176 104//176
f 99//177 116//177 115//177
f 104//178 99//178 112//178
f 115//179 114//179 99//179
f 114//180 113//180 99//180
f 113//181 112//181 99//181
f 112//178 111//178 104//178
f 111//182 110//182 104//182
f 110//183 109//183 104//183
f 109//184 108//184 104//184
f 108//185 107//185 104//185
f 103//186 91//186 69//186
f 91//187 90//187 89//187
f 73//188 91//188 74//188
f 104//189 103//189 97//189
f 97//190 103//190 100//190
f 102//171 131//171 98//171
f 91//191 73//191 71//191
f 100//70 103//70 70//70
f 89//192 88//192 91//192
f 88//193 87//193 91//193
f 87//194 86//194 91//194
f 86//195 85//195 91//195
f 85//196 83//196 75//196
f 91//197 85//197 75//197
f 83//198 82//198 75//198
f 82//199 81//199 75//199
f 81//200 80//200 84//200
f 84//201 106//201 75//201
f 106//202 105//202 75//202
f 81//203 84//203 75//203
f 91//204 71//204 72//204
f 96//205 101//205 93//205
f 93//206 101//206 94//206
f 75//207 74//207 91//207
f 94//208 101//208 92//208
f 92//70 100//70 70//70
f 91//209 72//209 69//209
